<?xml version="1.0" standalone="no"?>
<!DOCTYPE svg PUBLIC "-//W3C//DTD SVG 1.1//EN" "http://www.w3.org/Graphics/SVG/1.1/DTD/svg11.dtd">
<svg viewBox="0 0 400.000000 392.000000" version="1.1" xmlns="http://www.w3.org/2000/svg" xmlns:xlink="http://www.w3.org/1999/xlink">
	<text fill="rgb(0,0,0)" font-size="10" font-family="Arial" text-anchor="middle" dominant-baseline="central" x="138.75" y="246.68">m_flow</text>
	<rect fill="rgb(0,0,0)" stroke="none" stroke-opacity="1" transform="translate(151.525, 254.8) translate(0, 0) scale(1,-1)" x="-2.5" y="-3" width="5" height="6"/>
	<rect fill="rgb(0,39,78)" stroke="none" stroke-opacity="1" transform="translate(151.525, 254.8) translate(0, 0) scale(1,-1)" x="-2.5" y="-3" width="5" height="6"/>
	<rect fill="rgb(0,74,149)" stroke="none" stroke-opacity="1" transform="translate(151.525, 254.8) translate(0, 0) scale(1,-1)" x="-2.5" y="-2.5" width="5" height="5"/>
	<rect fill="rgb(0,102,206)" stroke="none" stroke-opacity="1" transform="translate(151.525, 254.8) translate(0, 0) scale(1,-1)" x="-2.5" y="-2" width="5" height="4"/>
	<rect fill="rgb(0,120,242)" stroke="none" stroke-opacity="1" transform="translate(151.525, 254.8) translate(0, 0) scale(1,-1)" x="-2.5" y="-1.5" width="5" height="3"/>
	<rect fill="rgb(0,127,255)" stroke="none" stroke-opacity="1" transform="translate(151.525, 254.8) translate(0, 0) scale(1,-1)" x="-2.5" y="-0.5" width="5" height="1"/>
	<ellipse fill="rgb(255,255,255)" stroke="rgb(0,0,255)" stroke-opacity="1" cx="145.4" cy="254.8" rx="5.6" ry="5.6"/>
	<polygon fill="rgb(0,0,255)" stroke="rgb(0,0,255)" stroke-opacity="1" points="142.600000,249.900000 151.000000,254.800000 142.600000,259.560000 142.600000,249.900000"/>
	<text fill="rgb(255,0,0)" font-size="10" font-family="Arial" text-anchor="middle" dominant-baseline="central" x="145.47" y="254.73">m</text>
	<ellipse fill="rgb(255,0,0)" stroke="rgb(255,0,0)" stroke-opacity="1" cx="145.26" cy="252.98" rx="0.28" ry="0.28"/>
	<text fill="rgb(0,0,255)" font-size="10" font-family="Arial" text-anchor="middle" dominant-baseline="central" x="146.03" y="245.7">coiSou</text>
	<text fill="rgb(0,0,255)" font-size="10" font-family="Arial" text-anchor="middle" dominant-baseline="central" x="172.07" y="310.38">res</text>
	<rect fill="rgb(0,0,0)" stroke="none" stroke-opacity="1" transform="translate(172, 301) translate(0, 0) scale(1,-1)" x="-7" y="-3" width="14" height="6"/>
	<rect fill="rgb(73,73,73)" stroke="none" stroke-opacity="1" transform="translate(172, 301) translate(0, 0) scale(1,-1)" x="-7" y="-2.5" width="14" height="5"/>
	<rect fill="rgb(135,135,135)" stroke="none" stroke-opacity="1" transform="translate(172, 301) translate(0, 0) scale(1,-1)" x="-7" y="-2" width="14" height="4"/>
	<rect fill="rgb(177,177,177)" stroke="none" stroke-opacity="1" transform="translate(172, 301) translate(0, 0) scale(1,-1)" x="-7" y="-1.5" width="14" height="3"/>
	<rect fill="rgb(192,192,192)" stroke="none" stroke-opacity="1" transform="translate(172, 301) translate(0, 0) scale(1,-1)" x="-7" y="-0.5" width="14" height="1"/>
	<rect fill="rgb(0,0,0)" stroke="none" stroke-opacity="1" transform="translate(172, 301.07) translate(0, 0) scale(1,-1)" x="-7" y="-1.5" width="14" height="3"/>
	<rect fill="rgb(0,63,127)" stroke="none" stroke-opacity="1" transform="translate(172, 301.07) translate(0, 0) scale(1,-1)" x="-7" y="-1.5" width="14" height="3"/>
	<rect fill="rgb(0,109,220)" stroke="none" stroke-opacity="1" transform="translate(172, 301.07) translate(0, 0) scale(1,-1)" x="-7" y="-1" width="14" height="2"/>
	<rect fill="rgb(0,127,255)" stroke="none" stroke-opacity="1" transform="translate(172, 301.07) translate(0, 0) scale(1,-1)" x="-7" y="-0.5" width="14" height="1"/>
	<rect fill="rgb(255,0,0)" stroke="none" stroke-opacity="1" x="165" y="300.3" width="0" height="0"/>
	<rect fill="rgb(0,0,0)" stroke="none" stroke-opacity="1" x="165" y="300.3" width="0" height="0"/>
	<rect fill="rgb(255,255,255)" stroke="rgb(0,0,127)" stroke-opacity="1" transform="translate(109, 140.7) translate(0, 0) scale(1,-1)" x="-7" y="-7.5" width="14" height="15"/>
	<text fill="rgb(0,0,255)" font-size="10" font-family="Arial" text-anchor="middle" dominant-baseline="central" x="108.37" y="130.536">weaDat</text>
	<text fill="rgb(0,0,255)" font-size="10" font-family="Arial" text-anchor="middle" dominant-baseline="central" x="291" y="291.9">sin</text>
	<ellipse fill="rgb(0,0,0)" stroke="none" stroke-opacity="1" transform=" rotate(-180, 291, 301)" cx="291" cy="301" rx="7" ry="7"/>
	<ellipse fill="rgb(15,15,29)" stroke="none" stroke-opacity="1" transform=" rotate(-180, 291, 301)" cx="291" cy="301" rx="6.88081" ry="6.88081"/>
	<ellipse fill="rgb(31,31,58)" stroke="none" stroke-opacity="1" transform=" rotate(-180, 291, 301)" cx="291" cy="301" rx="6.52731" ry="6.52731"/>
	<ellipse fill="rgb(45,45,84)" stroke="none" stroke-opacity="1" transform=" rotate(-180, 291, 301)" cx="291" cy="301" rx="5.95152" ry="5.95152"/>
	<ellipse fill="rgb(57,57,107)" stroke="none" stroke-opacity="1" transform=" rotate(-180, 291, 301)" cx="291" cy="301" rx="5.17306" ry="5.17306"/>
	<ellipse fill="rgb(68,68,126)" stroke="none" stroke-opacity="1" transform=" rotate(-180, 291, 301)" cx="291" cy="301" rx="4.21844" ry="4.21844"/>
	<ellipse fill="rgb(75,75,140)" stroke="none" stroke-opacity="1" transform=" rotate(-180, 291, 301)" cx="291" cy="301" rx="3.12017" ry="3.12017"/>
	<ellipse fill="rgb(80,80,149)" stroke="none" stroke-opacity="1" transform=" rotate(-180, 291, 301)" cx="291" cy="301" rx="1.91564" ry="1.91564"/>
	<ellipse fill="rgb(82,82,152)" stroke="none" stroke-opacity="1" transform=" rotate(-180, 291, 301)" cx="291" cy="301" rx="0.645879" ry="0.645879"/>
	<text fill="rgb(255,255,255)" font-size="10" font-family="Arial" text-anchor="middle" dominant-baseline="central" x="290.86" y="300.79">12.0</text>
	<rect fill="rgb(255,255,255)" stroke="rgb(0,0,127)" stroke-opacity="1" x="144" y="161" width="28" height="28"/>
	<text fill="rgb(0,0,255)" font-size="10" font-family="Arial" text-anchor="middle" dominant-baseline="central" x="158" y="156.8">vav2</text>
	<rect fill="rgb(0,0,0)" stroke="none" stroke-opacity="1" transform="translate(147.472, 176.688) translate(0.9898, -2.538) rotate(-90) scale(1,-1)" x="-14.9898" y="2.038" width="28" height="1"/>
	<rect fill="rgb(0,89,180)" stroke="none" stroke-opacity="1" transform="translate(147.472, 176.688) translate(0.9898, -2.538) rotate(-90) scale(1,-1)" x="-14.9898" y="2.538" width="28" height="0"/>
	<rect fill="rgb(0,127,255)" stroke="none" stroke-opacity="1" transform="translate(147.472, 176.688) translate(0.9898, -2.538) rotate(-90) scale(1,-1)" x="-14.9898" y="2.538" width="28" height="0"/>
	<rect fill="rgb(175,175,175)" stroke="none" stroke-opacity="1" transform="translate(151.42, 180.6) translate(0, 0) scale(1,-1)" x="-3" y="-3" width="6" height="6"/>
	<rect fill="rgb(0,0,0)" stroke="none" stroke-opacity="1" transform="translate(162.592, 190.372) translate(-16.072, -4.62) rotate(-90) scale(1,-1)" x="14.072" y="3.12" width="4" height="3"/>
	<rect fill="rgb(95,95,95)" stroke="none" stroke-opacity="1" transform="translate(162.592, 190.372) translate(-16.072, -4.62) rotate(-90) scale(1,-1)" x="14.072" y="3.12" width="4" height="3"/>
	<rect fill="rgb(166,166,166)" stroke="none" stroke-opacity="1" transform="translate(162.592, 190.372) translate(-16.072, -4.62) rotate(-90) scale(1,-1)" x="14.072" y="3.62" width="4" height="2"/>
	<rect fill="rgb(192,192,192)" stroke="none" stroke-opacity="1" transform="translate(162.592, 190.372) translate(-16.072, -4.62) rotate(-90) scale(1,-1)" x="14.072" y="4.12" width="4" height="1"/>
	<rect fill="rgb(0,0,0)" stroke="none" stroke-opacity="1" transform="translate(164.795, 188.561) translate(-16.268, -2.61334) rotate(-90) scale(1,-1)" x="14.268" y="1.61334" width="4" height="2"/>
	<rect fill="rgb(0,89,180)" stroke="none" stroke-opacity="1" transform="translate(164.795, 188.561) translate(-16.268, -2.61334) rotate(-90) scale(1,-1)" x="14.268" y="1.61334" width="4" height="2"/>
	<rect fill="rgb(0,127,255)" stroke="none" stroke-opacity="1" transform="translate(164.795, 188.561) translate(-16.268, -2.61334) rotate(-90) scale(1,-1)" x="14.268" y="2.11334" width="4" height="1"/>
	<polygon fill="rgb(0,0,0)" stroke="none" stroke-opacity="1" points="149.320000,170.520000 153.240000,168.280000 153.240000,168.560000 149.320000,170.800000 149.320000,170.520000"/>
	<polygon fill="rgb(0,0,0)" stroke="none" stroke-opacity="1" points="148.480000,178.920000 153.240000,178.920000 153.240000,179.200000 148.480000,179.200000 148.480000,178.920000"/>
	<polygon fill="rgb(0,0,0)" stroke="none" stroke-opacity="1" points="148.480000,182.280000 153.240000,182.280000 153.240000,182.560000 148.480000,182.560000 148.480000,182.280000"/>
	<polygon fill="rgb(0,0,0)" stroke="none" stroke-opacity="1" points="151.280000,179.760000 153.240000,178.920000 153.240000,179.200000 151.280000,180.040000 151.280000,179.760000"/>
	<polygon fill="rgb(0,0,0)" stroke="none" stroke-opacity="1" points="151.280000,179.760000 153.240000,180.600000 153.240000,180.880000 151.280000,180.040000 151.280000,179.760000"/>
	<polygon fill="rgb(0,0,0)" stroke="none" stroke-opacity="1" points="151.280000,181.440000 153.240000,182.280000 153.240000,182.560000 151.280000,181.720000 151.280000,181.440000"/>
	<polygon fill="rgb(0,0,0)" stroke="none" stroke-opacity="1" points="151.280000,181.440000 153.240000,180.600000 153.240000,180.880000 151.280000,181.720000 151.280000,181.440000"/>
	<text fill="rgb(0,0,255)" font-size="10" font-family="Arial" text-anchor="middle" dominant-baseline="central" x="167.87" y="156.38">TDisVAV2</text>
	<polyline fill="none" stroke="rgb(0,0,127)" stroke-opacity="1" points="171.440000,142.800000 171.860000,141.820000 172.420000,140.980000 173.120000,140.560000 173.960000,140.280000 174.660000,140.280000"/>
	<polyline fill="none" stroke="rgb(0,128,255)" stroke-opacity="1" points="160.800000,147.000000 174.240000,147.000000"/>
	<ellipse fill="rgb(191,0,0)" stroke="rgb(0,0,0)" stroke-width="2" stroke-opacity="1" cx="167.8" cy="149.73" rx="1.4" ry="1.33"/>
	<polyline fill="none" stroke="rgb(0,0,0)" stroke-opacity="1" points="165.000000,142.800000 166.960000,142.800000"/>
	<polyline fill="none" stroke="rgb(0,0,0)" stroke-opacity="1" points="165.000000,144.900000 166.960000,144.900000"/>
	<polyline fill="none" stroke="rgb(0,0,0)" stroke-opacity="1" points="165.000000,147.000000 166.960000,147.000000"/>
	<rect fill="rgb(191,0,0)" stroke="rgb(191,0,0)" stroke-opacity="1" transform="translate(167.8, 145.74) translate(0, 0) scale(1,-1)" x="-1" y="-3" width="2" height="6"/>
	<polygon fill="none" stroke="rgb(0,0,0)" stroke-width="2" stroke-opacity="1" points="166.960000,142.800000 166.960000,141.400000 167.100000,140.980000 167.380000,140.840000 167.800000,140.700000 168.220000,140.840000 168.500000,140.980000 168.640000,141.400000 168.640000,142.800000 166.960000,142.800000"/>
	<text fill="rgb(0,0,0)" font-size="10" font-family="Arial" text-anchor="middle" dominant-baseline="central" x="170.74" y="138.95">T</text>
	<polyline fill="none" stroke="rgb(0,0,0)" stroke-width="2" stroke-opacity="1" points="166.960000,142.800000 166.960000,148.750000"/>
	<polyline fill="none" stroke="rgb(0,0,0)" stroke-width="2" stroke-opacity="1" points="168.640000,142.800000 168.640000,148.680000"/>
	<polyline fill="none" stroke="rgb(0,0,127)" stroke-opacity="1" points="167.800000,140.000000 167.800000,143.500000"/>
	<text fill="rgb(0,0,0)" font-size="10" font-family="Arial" text-anchor="middle" dominant-baseline="central" x="162.2" y="140.35"></text>
	<text fill="rgb(0,0,255)" font-size="10" font-family="Arial" text-anchor="middle" dominant-baseline="central" x="221.07" y="156.38">VSup2</text>
	<polyline fill="none" stroke="rgb(0,0,127)" stroke-opacity="1" points="224.640000,142.800000 225.060000,141.820000 225.620000,140.980000 226.320000,140.560000 227.160000,140.280000 227.860000,140.280000"/>
	<ellipse fill="rgb(245,245,245)" stroke="rgb(0,0,0)" stroke-opacity="1" cx="221" cy="147" rx="4.9" ry="4.9"/>
	<polyline fill="none" stroke="rgb(0,0,0)" stroke-opacity="1" points="221.000000,142.100000 221.000000,144.200000"/>
	<polyline fill="none" stroke="rgb(0,0,0)" stroke-opacity="1" points="222.603000,144.704000 223.814000,142.989000"/>
	<polyline fill="none" stroke="rgb(0,0,0)" stroke-opacity="1" points="219.397000,144.704000 218.186000,142.989000"/>
	<polyline fill="none" stroke="rgb(0,0,0)" stroke-opacity="1" points="223.632000,146.041000 225.606000,145.327000"/>
	<polyline fill="none" stroke="rgb(0,0,0)" stroke-opacity="1" points="218.368000,146.041000 216.394000,145.327000"/>
	<ellipse fill="transparent" stroke="rgb(64,64,64)" stroke-opacity="1" cx="221" cy="147" rx="0.84" ry="0.84"/>
	<polygon fill="rgb(64,64,64)" stroke="none" stroke-opacity="1" points="220.666199,146.894753 222.129444,142.952290 222.368211,142.660588 222.396485,143.036488 221.333801,147.105247 220.666199,146.894753"/>
	<ellipse fill="rgb(64,64,64)" stroke="none" stroke-opacity="1" cx="221" cy="147" rx="0.49" ry="0.49"/>
	<text fill="rgb(0,0,0)" font-size="10" font-family="Arial" text-anchor="middle" dominant-baseline="central" x="226.6" y="139.65">V_flow</text>
	<polyline fill="none" stroke="rgb(0,0,127)" stroke-opacity="1" points="221.000000,140.000000 221.000000,142.100000"/>
	<polyline fill="none" stroke="rgb(0,128,255)" stroke-opacity="1" points="214.000000,147.000000 216.100000,147.000000"/>
	<polyline fill="none" stroke="rgb(0,128,255)" stroke-opacity="1" points="225.900000,147.000000 228.000000,147.000000"/>
	<text fill="rgb(0,0,0)" font-size="10" font-family="Arial" text-anchor="middle" dominant-baseline="central" x="215.4" y="140.35"></text>
	<rect fill="rgb(95,95,95)" stroke="rgb(95,95,95)" stroke-opacity="1" x="256.34" y="147.2" width="22" height="22"/>
	<rect fill="rgb(117,148,176)" stroke="none" stroke-opacity="1" transform="translate(267.34, 158.27) translate(0, 0) scale(1,-1)" x="-10" y="-9.5" width="20" height="19"/>
	<rect fill="rgb(124,157,187)" stroke="none" stroke-opacity="1" transform="translate(267.34, 158.27) translate(0, 0) scale(1,-1)" x="-9.5" y="-9.5" width="19" height="19"/>
	<rect fill="rgb(131,166,198)" stroke="none" stroke-opacity="1" transform="translate(267.34, 158.27) translate(0, 0) scale(1,-1)" x="-9.5" y="-9.5" width="19" height="19"/>
	<rect fill="rgb(139,175,208)" stroke="none" stroke-opacity="1" transform="translate(267.34, 158.27) translate(0, 0) scale(1,-1)" x="-9" y="-9" width="18" height="18"/>
	<rect fill="rgb(145,183,218)" stroke="none" stroke-opacity="1" transform="translate(267.34, 158.27) translate(0, 0) scale(1,-1)" x="-8.5" y="-8.5" width="17" height="17"/>
	<rect fill="rgb(151,190,227)" stroke="none" stroke-opacity="1" transform="translate(267.34, 158.27) translate(0, 0) scale(1,-1)" x="-7.5" y="-7.5" width="15" height="15"/>
	<rect fill="rgb(157,197,235)" stroke="none" stroke-opacity="1" transform="translate(267.34, 158.27) translate(0, 0) scale(1,-1)" x="-6.5" y="-6.5" width="13" height="13"/>
	<rect fill="rgb(161,202,242)" stroke="none" stroke-opacity="1" transform="translate(267.34, 158.27) translate(0, 0) scale(1,-1)" x="-5.5" y="-5.5" width="11" height="11"/>
	<rect fill="rgb(165,207,247)" stroke="none" stroke-opacity="1" transform="translate(267.34, 158.27) translate(0, 0) scale(1,-1)" x="-4.5" y="-4.5" width="9" height="9"/>
	<rect fill="rgb(167,210,251)" stroke="none" stroke-opacity="1" transform="translate(267.34, 158.27) translate(0, 0) scale(1,-1)" x="-3.5" y="-3.5" width="7" height="7"/>
	<rect fill="rgb(169,212,254)" stroke="none" stroke-opacity="1" transform="translate(267.34, 158.27) translate(0, 0) scale(1,-1)" x="-2" y="-2" width="4" height="4"/>
	<rect fill="rgb(170,213,255)" stroke="none" stroke-opacity="1" transform="translate(267.34, 158.27) translate(0, 0) scale(1,-1)" x="-0.5" y="-0.5" width="1" height="1"/>
	<rect fill="rgb(255,255,255)" stroke="rgb(95,95,95)" stroke-opacity="1" transform="translate(277.84, 158.2) translate(0, 0) scale(1,-1)" x="-0.5" y="-5" width="1" height="10"/>
	<rect fill="rgb(170,213,255)" stroke="rgb(95,95,95)" stroke-opacity="1" transform="translate(277.84, 158.2) translate(0, 0) scale(1,-1)" x="-0.5" y="-5" width="1" height="10"/>
	<rect fill="rgb(255,255,255)" stroke="rgb(0,0,127)" stroke-opacity="1" transform="translate(117.4, 175) translate(0, 0) scale(1,-1)" x="-7" y="-7" width="14" height="14"/>
	<text fill="rgb(0,0,255)" font-size="10" font-family="Arial" text-anchor="middle" dominant-baseline="central" x="116.77" y="165.76">volToUni_yvav2</text>
	<rect fill="rgb(255,255,255)" stroke="rgb(0,0,127)" stroke-opacity="1" transform="translate(249, 95.2) translate(0, 0) scale(1,-1)" x="-7" y="-7" width="14" height="14"/>
	<text fill="rgb(0,0,255)" font-size="10" font-family="Arial" text-anchor="middle" dominant-baseline="central" x="248.37" y="85.96">vToCFM_vav2</text>
	<rect fill="rgb(255,255,255)" stroke="rgb(0,0,127)" stroke-opacity="1" transform="translate(270, 95.2) translate(0, 0) scale(1,-1)" x="-7" y="-7" width="14" height="14"/>
	<text fill="rgb(0,0,255)" font-size="10" font-family="Arial" text-anchor="middle" dominant-baseline="central" x="269.37" y="85.96">toV</text>
	<rect fill="rgb(255,255,255)" stroke="rgb(0,0,127)" stroke-opacity="1" transform="translate(249, 74.2) translate(0, 0) scale(1,-1)" x="-7" y="-7" width="14" height="14"/>
	<text fill="rgb(0,0,255)" font-size="10" font-family="Arial" text-anchor="middle" dominant-baseline="central" x="248.37" y="64.96">kToF</text>
	<rect fill="rgb(255,255,255)" stroke="rgb(0,0,127)" stroke-opacity="1" transform="translate(270, 74.2) translate(0, 0) scale(1,-1)" x="-7" y="-7" width="14" height="14"/>
	<text fill="rgb(0,0,255)" font-size="10" font-family="Arial" text-anchor="middle" dominant-baseline="central" x="269.37" y="64.96">toV1</text>
	<rect fill="rgb(255,255,255)" stroke="rgb(0,0,127)" stroke-opacity="1" transform="translate(249, 116.2) translate(0, 0) scale(1,-1)" x="-7" y="-7" width="14" height="14"/>
	<text fill="rgb(0,0,255)" font-size="10" font-family="Arial" text-anchor="middle" dominant-baseline="central" x="248.37" y="106.96">kToF1</text>
	<rect fill="rgb(255,255,255)" stroke="rgb(0,0,127)" stroke-opacity="1" transform="translate(270, 116.2) translate(0, 0) scale(1,-1)" x="-7" y="-7" width="14" height="14"/>
	<text fill="rgb(0,0,255)" font-size="10" font-family="Arial" text-anchor="middle" dominant-baseline="central" x="269.37" y="106.96">toV2</text>
	<rect fill="rgb(255,255,255)" stroke="rgb(0,0,127)" stroke-opacity="1" transform="translate(270, 28) translate(0, 0) scale(1,-1)" x="-7" y="-7" width="14" height="14"/>
	<text fill="rgb(0,0,255)" font-size="10" font-family="Arial" text-anchor="middle" dominant-baseline="central" x="269.37" y="18.76">toV_TOut</text>
	<rect fill="rgb(255,255,255)" stroke="rgb(0,0,127)" stroke-opacity="1" transform="translate(270, 49) translate(0, 0) scale(1,-1)" x="-7" y="-7" width="14" height="14"/>
	<text fill="rgb(0,0,255)" font-size="10" font-family="Arial" text-anchor="middle" dominant-baseline="central" x="269.37" y="39.76">toV_RHOut</text>
	<rect fill="rgb(255,255,255)" stroke="rgb(0,0,127)" stroke-opacity="1" transform="translate(242, 28) translate(0, 0) scale(1,-1)" x="-7" y="-7" width="14" height="14"/>
	<text fill="rgb(0,0,255)" font-size="10" font-family="Arial" text-anchor="middle" dominant-baseline="central" x="241.37" y="18.76">kToF_TOut</text>
	<polygon fill="rgb(255,255,255)" stroke="rgb(0,0,127)" stroke-opacity="1" points="236.400000,56.000000 236.400000,42.000000 250.400000,49.000000 236.400000,56.000000"/>
	<text fill="rgb(0,0,0)" font-size="10" font-family="Arial" text-anchor="middle" dominant-baseline="central" x="243.4" y="57.4">k=100</text>
	<text fill="rgb(0,0,255)" font-size="10" font-family="Arial" text-anchor="middle" dominant-baseline="central" x="243.4" y="40.6">gain</text>
	<rect fill="rgb(235,235,235)" stroke="rgb(0,0,0)" stroke-opacity="1" transform="translate(270, 7) translate(0, 0) scale(1,-1)" x="-7" y="-3" width="14" height="6"/>
	<rect fill="rgb(172,168,153)" stroke="none" x="262.477" y="3.67733" width="0.522667" height="6.12267"/>
	<rect fill="rgb(172,168,153)" stroke="none" x="262.477" y="9.8" width="14.5227" height="0.522667"/>
	<rect fill="rgb(172,168,153)" stroke="none" x="277" y="4.2" width="0.522667" height="6.12267"/>
	<rect fill="rgb(172,168,153)" stroke="none" x="263" y="3.67733" width="14.5227" height="0.522667"/>
	<rect fill="rgb(255,255,255)" stroke="none" x="263" y="4.2" width="0.784" height="5.6"/>
	<rect fill="rgb(255,255,255)" stroke="none" x="263" y="4.2" width="14" height="0.784"/>
	<rect fill="rgb(113,111,100)" stroke="none" x="276.477" y="4.2" width="0.522667" height="5.6"/>
	<rect fill="rgb(113,111,100)" stroke="none" x="263" y="9.27733" width="14" height="0.522667"/>
	<rect fill="rgb(172,168,153)" stroke="none" x="275.955" y="4.72267" width="0.522667" height="4.55467"/>
	<rect fill="rgb(172,168,153)" stroke="none" x="263.523" y="8.75467" width="12.9547" height="0.522667"/>
	<text fill="rgb(0,0,0)" font-size="10" font-family="Arial" text-anchor="middle" dominant-baseline="central" x="270" y="7">time</text>
	<text fill="rgb(0,0,255)" font-size="10" font-family="Arial" text-anchor="middle" dominant-baseline="central" x="270" y="2.1">modTim</text>
	<rect fill="rgb(255,255,255)" stroke="rgb(0,0,127)" stroke-opacity="1" transform="translate(116, 201.6) translate(0, 0) scale(1,-1)" x="-7" y="-7" width="14" height="14"/>
	<text fill="rgb(0,0,255)" font-size="10" font-family="Arial" text-anchor="middle" dominant-baseline="central" x="115.37" y="192.36">volToUni_yhea</text>
	<rect fill="rgb(255,255,255)" stroke="rgb(0,0,127)" stroke-opacity="1" x="102" y="261.8" width="14" height="14"/>
	<text fill="rgb(0,0,255)" font-size="10" font-family="Arial" text-anchor="middle" dominant-baseline="central" x="109" y="259.7">mSou</text>
	<polyline fill="none" stroke="rgb(192,192,192)" stroke-opacity="1" points="103.400000,264.040000 103.400000,274.400000"/>
	<polygon fill="rgb(192,192,192)" stroke="rgb(192,192,192)" stroke-opacity="1" points="103.400000,262.500000 102.840000,264.040000 103.960000,264.040000 103.400000,262.500000"/>
	<polyline fill="none" stroke="rgb(192,192,192)" stroke-opacity="1" points="102.700000,273.700000 114.740000,273.700000"/>
	<polygon fill="rgb(192,192,192)" stroke="rgb(192,192,192)" stroke-opacity="1" points="115.300000,273.700000 113.760000,273.140000 113.760000,274.260000 115.300000,273.700000"/>
	<polyline fill="none" stroke="rgb(0,0,0)" stroke-opacity="1" points="103.400000,268.800000 114.600000,268.800000"/>
	<text fill="rgb(0,0,0)" font-size="10" font-family="Arial" text-anchor="middle" dominant-baseline="central" x="109" y="277.9">k=2*m_flow_nominal</text>
	<rect fill="rgb(210,210,210)" stroke="rgb(0,0,0)" stroke-opacity="1" transform="translate(120.2, 243.6) translate(0, 0) scale(1,-1)" x="-7" y="-7" width="14" height="14"/>
	<rect fill="rgb(172,168,153)" stroke="none" x="112.677" y="236.077" width="0.522667" height="14.5227"/>
	<rect fill="rgb(172,168,153)" stroke="none" x="112.677" y="250.6" width="14.5227" height="0.522667"/>
	<rect fill="rgb(172,168,153)" stroke="none" x="127.2" y="236.6" width="0.522667" height="14.5227"/>
	<rect fill="rgb(172,168,153)" stroke="none" x="113.2" y="236.077" width="14.5227" height="0.522667"/>
	<rect fill="rgb(255,255,255)" stroke="none" x="113.2" y="236.6" width="0.784" height="14"/>
	<rect fill="rgb(255,255,255)" stroke="none" x="113.2" y="236.6" width="14" height="0.784"/>
	<rect fill="rgb(113,111,100)" stroke="none" x="126.677" y="236.6" width="0.522667" height="14"/>
	<rect fill="rgb(113,111,100)" stroke="none" x="113.2" y="250.077" width="14" height="0.522667"/>
	<rect fill="rgb(172,168,153)" stroke="none" x="126.155" y="237.123" width="0.522667" height="12.9547"/>
	<rect fill="rgb(172,168,153)" stroke="none" x="113.723" y="249.555" width="12.9547" height="0.522667"/>
	<text fill="rgb(0,0,255)" font-size="10" font-family="Arial" text-anchor="middle" dominant-baseline="central" x="120.2" y="234.5">swi</text>
	<polyline fill="none" stroke="rgb(0,0,127)" stroke-opacity="1" points="121.040000,243.600000 127.200000,243.600000"/>
	<polyline fill="none" stroke="rgb(255,0,255)" stroke-opacity="1" points="113.200000,243.600000 117.400000,243.600000"/>
	<polyline fill="none" stroke="rgb(0,0,127)" stroke-opacity="1" points="113.200000,249.200000 117.400000,249.200000 117.400000,249.200000"/>
	<polyline fill="none" stroke="rgb(255,0,255)" stroke-opacity="1" points="117.400000,242.760000 117.400000,244.440000"/>
	<polyline fill="none" stroke="rgb(0,0,127)" stroke-opacity="1" points="113.200000,238.000000 117.540000,238.000000"/>
	<polyline fill="none" stroke="rgb(0,0,127)" stroke-width="4" stroke-opacity="1" points="117.540000,238.000000 120.620000,243.460000"/>
	<ellipse fill="black" stroke="none" stroke-opacity="1" cx="120.9" cy="243.6" rx="0.56" ry="0.56"/>
	<rect fill="rgb(210,210,210)" stroke="rgb(0,0,0)" stroke-opacity="1" transform="translate(90.8, 238) translate(0, 0) scale(1,-1)" x="-7" y="-7" width="14" height="14"/>
	<rect fill="rgb(172,168,153)" stroke="none" x="83.2773" y="230.477" width="0.522667" height="14.5227"/>
	<rect fill="rgb(172,168,153)" stroke="none" x="83.2773" y="245" width="14.5227" height="0.522667"/>
	<rect fill="rgb(172,168,153)" stroke="none" x="97.8" y="231" width="0.522667" height="14.5227"/>
	<rect fill="rgb(172,168,153)" stroke="none" x="83.8" y="230.477" width="14.5227" height="0.522667"/>
	<rect fill="rgb(255,255,255)" stroke="none" x="83.8" y="231" width="0.784" height="14"/>
	<rect fill="rgb(255,255,255)" stroke="none" x="83.8" y="231" width="14" height="0.784"/>
	<rect fill="rgb(113,111,100)" stroke="none" x="97.2773" y="231" width="0.522667" height="14"/>
	<rect fill="rgb(113,111,100)" stroke="none" x="83.8" y="244.477" width="14" height="0.522667"/>
	<rect fill="rgb(172,168,153)" stroke="none" x="96.7547" y="231.523" width="0.522667" height="12.9547"/>
	<rect fill="rgb(172,168,153)" stroke="none" x="84.3227" y="243.955" width="12.9547" height="0.522667"/>
	<text fill="rgb(0,0,255)" font-size="10" font-family="Arial" text-anchor="middle" dominant-baseline="central" x="90.8" y="228.9">realToBoolean</text>
	<ellipse fill="rgb(235,235,235)" stroke="rgb(235,235,235)" stroke-opacity="1" cx="96.26" cy="238" rx="0.49" ry="0.49"/>
	<text fill="rgb(0,0,127)" font-size="10" font-family="Arial" text-anchor="middle" dominant-baseline="central" x="87.58" y="234.43">R</text>
	<polygon fill="rgb(255,0,255)" stroke="rgb(255,0,255)" stroke-opacity="1" points="89.960000,241.220000 88.560000,239.820000 88.560000,240.520000 86.320000,240.520000 86.320000,241.920000 88.560000,241.920000 88.560000,242.620000 89.960000,241.220000"/>
	<text fill="rgb(255,0,255)" font-size="10" font-family="Arial" text-anchor="middle" dominant-baseline="central" x="94.3" y="241.43">B</text>
	<rect fill="rgb(255,255,255)" stroke="rgb(0,0,127)" stroke-opacity="1" x="102" y="288.4" width="14" height="14"/>
	<text fill="rgb(0,0,255)" font-size="10" font-family="Arial" text-anchor="middle" dominant-baseline="central" x="109" y="286.3">zer</text>
	<polyline fill="none" stroke="rgb(192,192,192)" stroke-opacity="1" points="103.400000,290.640000 103.400000,301.000000"/>
	<polygon fill="rgb(192,192,192)" stroke="rgb(192,192,192)" stroke-opacity="1" points="103.400000,289.100000 102.840000,290.640000 103.960000,290.640000 103.400000,289.100000"/>
	<polyline fill="none" stroke="rgb(192,192,192)" stroke-opacity="1" points="102.700000,300.300000 114.740000,300.300000"/>
	<polygon fill="rgb(192,192,192)" stroke="rgb(192,192,192)" stroke-opacity="1" points="115.300000,300.300000 113.760000,299.740000 113.760000,300.860000 115.300000,300.300000"/>
	<polyline fill="none" stroke="rgb(0,0,0)" stroke-opacity="1" points="103.400000,295.400000 114.600000,295.400000"/>
	<text fill="rgb(0,0,0)" font-size="10" font-family="Arial" text-anchor="middle" dominant-baseline="central" x="109" y="304.5">k=0</text>
	<polyline fill="none" stroke="rgb(255,255,255)" stroke-width="6" stroke-opacity="1" points="114.460000,140.546000 124.330000,140.546000 124.330000,126.000000 137.000000,126.000000"/>
	<polyline fill="none" stroke="rgb(255,204,51)" stroke-width="2" stroke-opacity="1" points="114.460000,140.546000 124.330000,140.546000 124.330000,126.000000 137.000000,126.000000"/>
	<polyline fill="none" stroke="rgb(255,255,255)" stroke-width="5" stroke-opacity="1" points="153.800000,253.400000 153.800000,302.400000 160.800000,302.400000 160.800000,301.000000 165.000000,301.000000"/>
	<polyline fill="none" stroke="rgb(0,127,255)" stroke-opacity="1" points="153.800000,253.400000 153.800000,302.400000 160.800000,302.400000 160.800000,301.000000 165.000000,301.000000"/>
	<polyline fill="none" stroke="rgb(255,255,255)" stroke-width="5" stroke-opacity="1" points="179.000000,301.000000 229.400000,301.000000 229.400000,299.600000 284.000000,299.600000"/>
	<polyline fill="none" stroke="rgb(0,127,255)" stroke-opacity="1" points="179.000000,301.000000 229.400000,301.000000 229.400000,299.600000 284.000000,299.600000"/>
	<polyline fill="none" stroke="rgb(255,255,255)" stroke-width="5" stroke-opacity="1" points="151.000000,161.000000 151.000000,147.000000 160.800000,147.000000"/>
	<polyline fill="none" stroke="rgb(0,127,255)" stroke-opacity="1" points="151.000000,161.000000 151.000000,147.000000 160.800000,147.000000"/>
	<polyline fill="none" stroke="rgb(255,255,255)" stroke-width="5" stroke-opacity="1" points="174.800000,147.000000 214.000000,147.000000"/>
	<polyline fill="none" stroke="rgb(0,127,255)" stroke-opacity="1" points="174.800000,147.000000 214.000000,147.000000"/>
	<polyline fill="none" stroke="rgb(255,255,255)" stroke-width="5" stroke-opacity="1" points="228.000000,147.000000 242.000000,147.000000 242.000000,156.800000 253.200000,156.800000"/>
	<polyline fill="none" stroke="rgb(0,127,255)" stroke-opacity="1" points="228.000000,147.000000 242.000000,147.000000 242.000000,156.800000 253.200000,156.800000"/>
	<polyline fill="none" stroke="rgb(255,255,255)" stroke-width="6" stroke-opacity="1" points="137.000000,126.000000 257.400000,126.000000 257.400000,145.600000"/>
	<polyline fill="none" stroke="rgb(255,204,51)" stroke-width="2" stroke-opacity="1" points="137.000000,126.000000 257.400000,126.000000 257.400000,145.600000"/>
	<text fill="rgb(0,0,0)" font-size="10" font-family="Arial" text-anchor="end" dominant-baseline="central" x="255.3" y="141.4">weaBus</text>
	<polyline fill="none" stroke="rgb(255,255,255)" stroke-width="5" stroke-opacity="1" points="88.000000,175.000000 109.000000,175.000000"/>
	<polyline fill="none" stroke="rgb(0,0,127)" stroke-opacity="1" points="88.000000,175.000000 109.000000,175.000000"/>
	<polyline fill="none" stroke="rgb(255,255,255)" stroke-width="5" stroke-opacity="1" points="125.100000,175.000000 130.000000,175.000000 130.000000,169.400000 141.200000,169.400000"/>
	<polyline fill="none" stroke="rgb(0,0,127)" stroke-opacity="1" points="125.100000,175.000000 130.000000,175.000000 130.000000,169.400000 141.200000,169.400000"/>
	<polyline fill="none" stroke="rgb(255,255,255)" stroke-width="5" stroke-opacity="1" points="221.000000,139.300000 221.000000,95.200000 240.600000,95.200000"/>
	<polyline fill="none" stroke="rgb(0,0,127)" stroke-opacity="1" points="221.000000,139.300000 221.000000,95.200000 240.600000,95.200000"/>
	<polyline fill="none" stroke="rgb(255,255,255)" stroke-width="5" stroke-opacity="1" points="151.000000,189.000000 151.000000,256.200000 153.800000,256.200000"/>
	<polyline fill="none" stroke="rgb(0,127,255)" stroke-opacity="1" points="151.000000,189.000000 151.000000,256.200000 153.800000,256.200000"/>
	<polyline fill="none" stroke="rgb(255,255,255)" stroke-width="5" stroke-opacity="1" points="256.700000,95.200000 261.600000,95.200000"/>
	<polyline fill="none" stroke="rgb(0,0,127)" stroke-opacity="1" points="256.700000,95.200000 261.600000,95.200000"/>
	<polyline fill="none" stroke="rgb(255,255,255)" stroke-width="5" stroke-opacity="1" points="277.700000,95.200000 291.000000,95.200000 291.000000,266.000000 305.000000,266.000000"/>
	<polyline fill="none" stroke="rgb(0,0,127)" stroke-opacity="1" points="277.700000,95.200000 291.000000,95.200000 291.000000,266.000000 305.000000,266.000000"/>
	<polyline fill="none" stroke="rgb(255,255,255)" stroke-width="5" stroke-opacity="1" points="167.800000,139.300000 167.800000,74.200000 240.600000,74.200000"/>
	<polyline fill="none" stroke="rgb(0,0,127)" stroke-opacity="1" points="167.800000,139.300000 167.800000,74.200000 240.600000,74.200000"/>
	<polyline fill="none" stroke="rgb(255,255,255)" stroke-width="5" stroke-opacity="1" points="256.700000,74.200000 261.600000,74.200000"/>
	<polyline fill="none" stroke="rgb(0,0,127)" stroke-opacity="1" points="256.700000,74.200000 261.600000,74.200000"/>
	<polyline fill="none" stroke="rgb(255,255,255)" stroke-width="5" stroke-opacity="1" points="277.700000,74.200000 293.800000,74.200000 293.800000,252.000000 305.000000,252.000000"/>
	<polyline fill="none" stroke="rgb(0,0,127)" stroke-opacity="1" points="277.700000,74.200000 293.800000,74.200000 293.800000,252.000000 305.000000,252.000000"/>
	<polyline fill="none" stroke="rgb(255,255,255)" stroke-width="5" stroke-opacity="1" points="281.900000,158.200000 281.200000,158.200000 281.200000,133.000000 232.200000,133.000000 232.200000,116.200000 240.600000,116.200000"/>
	<polyline fill="none" stroke="rgb(0,0,127)" stroke-opacity="1" points="281.900000,158.200000 281.200000,158.200000 281.200000,133.000000 232.200000,133.000000 232.200000,116.200000 240.600000,116.200000"/>
	<polyline fill="none" stroke="rgb(255,255,255)" stroke-width="5" stroke-opacity="1" points="256.700000,116.200000 261.600000,116.200000"/>
	<polyline fill="none" stroke="rgb(0,0,127)" stroke-opacity="1" points="256.700000,116.200000 261.600000,116.200000"/>
	<polyline fill="none" stroke="rgb(255,255,255)" stroke-width="5" stroke-opacity="1" points="277.700000,116.200000 288.200000,116.200000 288.200000,280.000000 305.000000,280.000000"/>
	<polyline fill="none" stroke="rgb(0,0,127)" stroke-opacity="1" points="277.700000,116.200000 288.200000,116.200000 288.200000,280.000000 305.000000,280.000000"/>
	<polyline fill="none" stroke="rgb(255,255,255)" stroke-width="5" stroke-opacity="1" points="249.700000,28.000000 256.350000,28.000000 256.350000,28.000000 261.600000,28.000000"/>
	<polyline fill="none" stroke="rgb(0,0,127)" stroke-opacity="1" points="249.700000,28.000000 256.350000,28.000000 256.350000,28.000000 261.600000,28.000000"/>
	<polyline fill="none" stroke="rgb(255,255,255)" stroke-width="6" stroke-opacity="1" points="137.000000,126.000000 137.000000,28.000000 233.600000,28.000000"/>
	<polyline fill="none" stroke="rgb(255,204,51)" stroke-width="2" stroke-opacity="1" points="137.000000,126.000000 137.000000,28.000000 233.600000,28.000000"/>
	<text fill="rgb(0,0,0)" font-size="10" font-family="Arial" text-anchor="end" dominant-baseline="central" x="229.4" y="25.9">TDryBul</text>
	<polyline fill="none" stroke="rgb(255,255,255)" stroke-width="5" stroke-opacity="1" points="277.700000,28.000000 289.600000,28.000000 289.600000,119.000000 305.000000,119.000000"/>
	<polyline fill="none" stroke="rgb(0,0,127)" stroke-opacity="1" points="277.700000,28.000000 289.600000,28.000000 289.600000,119.000000 305.000000,119.000000"/>
	<polyline fill="none" stroke="rgb(255,255,255)" stroke-width="5" stroke-opacity="1" points="277.700000,49.000000 286.800000,49.000000 286.800000,133.000000 305.000000,133.000000"/>
	<polyline fill="none" stroke="rgb(0,0,127)" stroke-opacity="1" points="277.700000,49.000000 286.800000,49.000000 286.800000,133.000000 305.000000,133.000000"/>
	<polyline fill="none" stroke="rgb(255,255,255)" stroke-width="5" stroke-opacity="1" points="251.100000,49.000000 261.600000,49.000000"/>
	<polyline fill="none" stroke="rgb(0,0,127)" stroke-opacity="1" points="251.100000,49.000000 261.600000,49.000000"/>
	<polyline fill="none" stroke="rgb(255,255,255)" stroke-width="6" stroke-opacity="1" points="137.000000,126.000000 137.000000,49.000000 235.000000,49.000000"/>
	<polyline fill="none" stroke="rgb(255,204,51)" stroke-width="2" stroke-opacity="1" points="137.000000,126.000000 137.000000,49.000000 235.000000,49.000000"/>
	<text fill="rgb(0,0,0)" font-size="10" font-family="Arial" text-anchor="end" dominant-baseline="central" x="230.8" y="46.9">relHum</text>
	<polyline fill="none" stroke="rgb(255,255,255)" stroke-width="5" stroke-opacity="1" points="249.700000,28.000000 256.000000,28.000000 256.000000,14.000000 190.200000,14.000000 190.200000,288.400000 313.400000,288.400000"/>
	<polyline fill="none" stroke="rgb(0,0,127)" stroke-opacity="1" points="249.700000,28.000000 256.000000,28.000000 256.000000,14.000000 190.200000,14.000000 190.200000,288.400000 313.400000,288.400000"/>
	<polyline fill="none" stroke="rgb(255,255,255)" stroke-width="5" stroke-opacity="1" points="251.100000,49.000000 254.600000,49.000000 254.600000,39.200000 190.200000,39.200000 190.200000,302.400000 313.400000,302.400000"/>
	<polyline fill="none" stroke="rgb(0,0,127)" stroke-opacity="1" points="251.100000,49.000000 254.600000,49.000000 254.600000,39.200000 190.200000,39.200000 190.200000,302.400000 313.400000,302.400000"/>
	<polyline fill="none" stroke="rgb(255,255,255)" stroke-width="5" stroke-opacity="1" points="256.700000,74.200000 258.800000,74.200000 258.800000,58.800000 181.800000,58.800000 181.800000,315.000000 313.400000,315.000000"/>
	<polyline fill="none" stroke="rgb(0,0,127)" stroke-opacity="1" points="256.700000,74.200000 258.800000,74.200000 258.800000,58.800000 181.800000,58.800000 181.800000,315.000000 313.400000,315.000000"/>
	<polyline fill="none" stroke="rgb(255,255,255)" stroke-width="5" stroke-opacity="1" points="256.700000,95.200000 258.800000,95.200000 258.800000,84.000000 190.200000,84.000000 190.200000,331.800000 313.400000,331.800000"/>
	<polyline fill="none" stroke="rgb(0,0,127)" stroke-opacity="1" points="256.700000,95.200000 258.800000,95.200000 258.800000,84.000000 190.200000,84.000000 190.200000,331.800000 313.400000,331.800000"/>
	<polyline fill="none" stroke="rgb(255,255,255)" stroke-width="5" stroke-opacity="1" points="256.700000,116.200000 258.800000,116.200000 258.800000,106.400000 190.200000,106.400000 190.200000,354.200000 313.400000,354.200000"/>
	<polyline fill="none" stroke="rgb(0,0,127)" stroke-opacity="1" points="256.700000,116.200000 258.800000,116.200000 258.800000,106.400000 190.200000,106.400000 190.200000,354.200000 313.400000,354.200000"/>
	<polyline fill="none" stroke="rgb(255,255,255)" stroke-width="5" stroke-opacity="1" points="277.700000,7.000000 285.400000,7.000000 285.400000,98.000000 305.000000,98.000000"/>
	<polyline fill="none" stroke="rgb(0,0,127)" stroke-opacity="1" points="277.700000,7.000000 285.400000,7.000000 285.400000,98.000000 305.000000,98.000000"/>
	<polyline fill="none" stroke="rgb(255,255,255)" stroke-width="5" stroke-opacity="1" points="253.200000,159.600000 243.400000,159.600000 243.400000,306.600000 284.000000,306.600000 284.000000,302.400000"/>
	<polyline fill="none" stroke="rgb(0,127,255)" stroke-opacity="1" points="253.200000,159.600000 243.400000,159.600000 243.400000,306.600000 284.000000,306.600000 284.000000,302.400000"/>
	<polyline fill="none" stroke="rgb(255,255,255)" stroke-width="5" stroke-opacity="1" points="88.000000,203.000000 96.400000,203.000000 96.400000,201.600000 107.600000,201.600000"/>
	<polyline fill="none" stroke="rgb(0,0,127)" stroke-opacity="1" points="88.000000,203.000000 96.400000,203.000000 96.400000,201.600000 107.600000,201.600000"/>
	<polyline fill="none" stroke="rgb(255,255,255)" stroke-width="5" stroke-opacity="1" points="123.700000,201.600000 131.400000,201.600000 131.400000,180.600000 141.200000,180.600000"/>
	<polyline fill="none" stroke="rgb(0,0,127)" stroke-opacity="1" points="123.700000,201.600000 131.400000,201.600000 131.400000,180.600000 141.200000,180.600000"/>
	<polyline fill="none" stroke="rgb(255,255,255)" stroke-width="5" stroke-opacity="1" points="125.100000,175.000000 128.600000,175.000000 128.600000,219.800000 65.600000,219.800000 65.600000,238.000000 82.400000,238.000000"/>
	<polyline fill="none" stroke="rgb(0,0,127)" stroke-opacity="1" points="125.100000,175.000000 128.600000,175.000000 128.600000,219.800000 65.600000,219.800000 65.600000,238.000000 82.400000,238.000000"/>
	<polyline fill="none" stroke="rgb(255,255,255)" stroke-width="5" stroke-opacity="1" points="98.500000,238.000000 104.800000,238.000000 104.800000,243.600000 111.800000,243.600000"/>
	<polyline fill="none" stroke="rgb(255,0,255)" stroke-opacity="1" points="98.500000,238.000000 104.800000,238.000000 104.800000,243.600000 111.800000,243.600000"/>
	<polyline fill="none" stroke="rgb(255,255,255)" stroke-width="5" stroke-opacity="1" points="116.700000,268.800000 123.000000,268.800000 123.000000,229.600000 106.200000,229.600000 106.200000,238.000000 111.800000,238.000000"/>
	<polyline fill="none" stroke="rgb(0,0,127)" stroke-opacity="1" points="116.700000,268.800000 123.000000,268.800000 123.000000,229.600000 106.200000,229.600000 106.200000,238.000000 111.800000,238.000000"/>
	<polyline fill="none" stroke="rgb(255,255,255)" stroke-width="5" stroke-opacity="1" points="116.700000,295.400000 120.200000,295.400000 120.200000,254.800000 104.800000,254.800000 104.800000,249.200000 111.800000,249.200000"/>
	<polyline fill="none" stroke="rgb(0,0,127)" stroke-opacity="1" points="116.700000,295.400000 120.200000,295.400000 120.200000,254.800000 104.800000,254.800000 104.800000,249.200000 111.800000,249.200000"/>
	<polyline fill="none" stroke="rgb(255,255,255)" stroke-width="5" stroke-opacity="1" points="127.900000,243.600000 132.800000,243.600000 132.800000,249.200000 138.400000,249.200000"/>
	<polyline fill="none" stroke="rgb(0,0,127)" stroke-opacity="1" points="127.900000,243.600000 132.800000,243.600000 132.800000,249.200000 138.400000,249.200000"/>
	<ellipse fill="rgb(0,0,127)" stroke="rgb(0,0,127)" cx="128.6" cy="175" rx="3" ry="3"/>
	<ellipse fill="rgb(0,0,127)" stroke="rgb(0,0,127)" cx="256" cy="28" rx="3" ry="3"/>
	<ellipse fill="rgb(0,0,127)" stroke="rgb(0,0,127)" cx="254.6" cy="49" rx="3" ry="3"/>
	<ellipse fill="rgb(0,0,127)" stroke="rgb(0,0,127)" cx="258.8" cy="116.2" rx="3" ry="3"/>
	<ellipse fill="rgb(0,0,127)" stroke="rgb(0,0,127)" cx="258.8" cy="95.2" rx="3" ry="3"/>
	<ellipse fill="rgb(0,0,127)" stroke="rgb(0,0,127)" cx="258.8" cy="74.2" rx="3" ry="3"/>
	<ellipse fill="white" stroke="rgb(255,204,51)" cx="137" cy="49" rx="3" ry="3"/>
	<polygon fill="rgb(255,204,51)" stroke="rgb(0,0,0)" stroke-opacity="1" points="137.000000,122.500000 138.071000,122.507000 139.044000,122.528000 139.919000,122.563000 140.696000,122.612000 141.375000,122.675000 141.956000,122.752000 142.439000,122.843000 142.824000,122.948000 143.111000,123.067000 143.300000,123.200000 143.300000,123.200000 143.300000,123.200000 143.426000,123.357500 143.524000,123.550000 143.594000,123.777500 143.636000,124.040000 143.650000,124.337500 143.636000,124.670000 143.594000,125.037500 143.524000,125.440000 143.426000,125.877500 143.300000,126.350000 143.300000,126.350000 143.300000,126.350000 143.160000,126.819000 143.020000,127.246000 142.880000,127.631000 142.740000,127.974000 142.600000,128.275000 142.460000,128.534000 142.320000,128.751000 142.180000,128.926000 142.040000,129.059000 141.900000,129.150000 141.900000,129.150000 141.900000,129.150000 141.725000,129.216500 141.480000,129.276000 141.165000,129.328500 140.780000,129.374000 140.325000,129.412500 139.800000,129.444000 139.205000,129.468500 138.540000,129.486000 137.805000,129.496500 137.000000,129.500000 137.000000,129.500000 137.000000,129.500000 136.195000,129.496500 135.460000,129.486000 134.795000,129.468500 134.200000,129.444000 133.675000,129.412500 133.220000,129.374000 132.835000,129.328500 132.520000,129.276000 132.275000,129.216500 132.100000,129.150000 132.100000,129.150000 132.100000,129.150000 131.960000,129.059000 131.820000,128.926000 131.680000,128.751000 131.540000,128.534000 131.400000,128.275000 131.260000,127.974000 131.120000,127.631000 130.980000,127.246000 130.840000,126.819000 130.700000,126.350000 130.700000,126.350000 130.700000,126.350000 130.574000,125.877500 130.476000,125.440000 130.406000,125.037500 130.364000,124.670000 130.350000,124.337500 130.364000,124.040000 130.406000,123.777500 130.476000,123.550000 130.574000,123.357500 130.700000,123.200000 130.700000,123.200000 130.700000,123.200000 130.889000,123.067000 131.176000,122.948000 131.561000,122.843000 132.044000,122.752000 132.625000,122.675000 133.304000,122.612000 134.081000,122.563000 134.956000,122.528000 135.929000,122.507000 137.000000,122.500000 137.000000,122.500000"/>
	<ellipse fill="black" stroke="rgb(0,0,0)" stroke-opacity="1" cx="132.8" cy="124.6" rx="0.35" ry="0.35"/>
	<ellipse fill="black" stroke="rgb(0,0,0)" stroke-opacity="1" cx="137" cy="124.6" rx="0.35" ry="0.35"/>
	<ellipse fill="black" stroke="rgb(0,0,0)" stroke-opacity="1" cx="141.2" cy="124.6" rx="0.35" ry="0.35"/>
	<ellipse fill="black" stroke="rgb(0,0,0)" stroke-opacity="1" cx="134.9" cy="127.4" rx="0.35" ry="0.35"/>
	<ellipse fill="black" stroke="rgb(0,0,0)" stroke-opacity="1" cx="139.1" cy="127.4" rx="0.35" ry="0.35"/>
	<text fill="rgb(0,0,0)" font-size="10" font-family="Arial" text-anchor="middle" dominant-baseline="central" x="137" y="118.3">weaBus</text>
	<rect fill="rgb(255,255,255)" stroke="rgb(0,127,255)" stroke-opacity="1" x="153.3" y="251.8" width="1" height="6"/>
	<ellipse fill="rgb(0,127,255)" stroke="rgb(0,0,0)" stroke-opacity="1" cx="153.8" cy="256.62" rx="0.7" ry="0.7"/>
	<ellipse fill="rgb(0,127,255)" stroke="rgb(0,0,0)" stroke-opacity="1" cx="153.8" cy="254.8" rx="0.7" ry="0.7"/>
	<ellipse fill="rgb(0,127,255)" stroke="rgb(0,0,0)" stroke-opacity="1" cx="153.8" cy="252.98" rx="0.7" ry="0.7"/>
	<ellipse fill="rgb(255,255,255)" stroke="rgb(0,127,255)" stroke-opacity="1" cx="153.8" cy="254.8" rx="0.42" ry="0.42"/>
	<ellipse fill="rgb(255,255,255)" stroke="rgb(0,127,255)" stroke-opacity="1" cx="153.8" cy="256.62" rx="0.42" ry="0.42"/>
	<ellipse fill="rgb(255,255,255)" stroke="rgb(0,127,255)" stroke-opacity="1" cx="153.8" cy="252.98" rx="0.42" ry="0.42"/>
	<rect fill="rgb(255,255,255)" stroke="rgb(0,127,255)" stroke-opacity="1" x="153.3" y="251.8" width="1" height="6"/>
	<ellipse fill="rgb(0,127,255)" stroke="rgb(0,0,0)" stroke-opacity="1" cx="153.8" cy="256.62" rx="0.7" ry="0.7"/>
	<ellipse fill="rgb(0,127,255)" stroke="rgb(0,0,0)" stroke-opacity="1" cx="153.8" cy="254.8" rx="0.7" ry="0.7"/>
	<ellipse fill="rgb(0,127,255)" stroke="rgb(0,0,0)" stroke-opacity="1" cx="153.8" cy="252.98" rx="0.7" ry="0.7"/>
	<ellipse fill="rgb(255,255,255)" stroke="rgb(0,127,255)" stroke-opacity="1" cx="153.8" cy="254.8" rx="0.42" ry="0.42"/>
	<ellipse fill="rgb(255,255,255)" stroke="rgb(0,127,255)" stroke-opacity="1" cx="153.8" cy="256.62" rx="0.42" ry="0.42"/>
	<ellipse fill="rgb(255,255,255)" stroke="rgb(0,127,255)" stroke-opacity="1" cx="153.8" cy="252.98" rx="0.42" ry="0.42"/>
	<polygon fill="rgb(0,0,127)" stroke="rgb(0,0,127)" stroke-opacity="1" points="137.000000,247.800000 139.800000,249.200000 137.000000,250.600000 137.000000,247.800000"/>
	<ellipse fill="rgb(0,127,255)" stroke="rgb(0,127,255)" stroke-opacity="1" cx="165" cy="301" rx="0.7" ry="0.7"/>
	<ellipse fill="rgb(0,127,255)" stroke="rgb(0,0,0)" stroke-opacity="1" cx="165" cy="301" rx="0.7" ry="0.7"/>
	<ellipse fill="rgb(0,127,255)" stroke="rgb(0,127,255)" stroke-opacity="1" transform=" rotate(-180, 179, 301)" cx="179" cy="301" rx="0.7" ry="0.7"/>
	<ellipse fill="rgb(0,127,255)" stroke="rgb(0,0,0)" stroke-opacity="1" transform=" rotate(-180, 179, 301)" cx="179" cy="301" rx="0.7" ry="0.7"/>
	<ellipse fill="rgb(255,255,255)" stroke="rgb(0,127,255)" stroke-opacity="1" transform=" rotate(-180, 179, 301)" cx="179" cy="301" rx="0.56" ry="0.56"/>
	<rect fill="none" stroke="rgb(255,204,51)" stroke-width="2" stroke-opacity="1" x="114.46" y="140.546" width="0" height="0"/>
	<polygon fill="rgb(255,215,136)" stroke="rgb(0,0,0)" stroke-opacity="1" points="114.460000,140.161000 114.567100,140.161770 114.664400,140.164080 114.751900,140.167930 114.829600,140.173320 114.897500,140.180250 114.955600,140.188720 115.003900,140.198730 115.042400,140.210280 115.071100,140.223370 115.090000,140.238000 115.090000,140.238000 115.090000,140.238000 115.102600,140.255325 115.112400,140.276500 115.119400,140.301525 115.123600,140.330400 115.125000,140.363125 115.123600,140.399700 115.119400,140.440125 115.112400,140.484400 115.102600,140.532525 115.090000,140.584500 115.090000,140.584500 115.090000,140.584500 115.076000,140.636090 115.062000,140.683060 115.048000,140.725410 115.034000,140.763140 115.020000,140.796250 115.006000,140.824740 114.992000,140.848610 114.978000,140.867860 114.964000,140.882490 114.950000,140.892500 114.950000,140.892500 114.950000,140.892500 114.932500,140.899815 114.908000,140.906360 114.876500,140.912135 114.838000,140.917140 114.792500,140.921375 114.740000,140.924840 114.680500,140.927535 114.614000,140.929460 114.540500,140.930615 114.460000,140.931000 114.460000,140.931000 114.460000,140.931000 114.379500,140.930615 114.306000,140.929460 114.239500,140.927535 114.180000,140.924840 114.127500,140.921375 114.082000,140.917140 114.043500,140.912135 114.012000,140.906360 113.987500,140.899815 113.970000,140.892500 113.970000,140.892500 113.970000,140.892500 113.956000,140.882490 113.942000,140.867860 113.928000,140.848610 113.914000,140.824740 113.900000,140.796250 113.886000,140.763140 113.872000,140.725410 113.858000,140.683060 113.844000,140.636090 113.830000,140.584500 113.830000,140.584500 113.830000,140.584500 113.817400,140.532525 113.807600,140.484400 113.800600,140.440125 113.796400,140.399700 113.795000,140.363125 113.796400,140.330400 113.800600,140.301525 113.807600,140.276500 113.817400,140.255325 113.830000,140.238000 113.830000,140.238000 113.830000,140.238000 113.848900,140.223370 113.877600,140.210280 113.916100,140.198730 113.964400,140.188720 114.022500,140.180250 114.090400,140.173320 114.168100,140.167930 114.255600,140.164080 114.352900,140.161770 114.460000,140.161000 114.460000,140.161000"/>
	<ellipse fill="black" stroke="rgb(0,0,0)" stroke-opacity="1" cx="114.04" cy="140.392" rx="0.035" ry="0.0385"/>
	<ellipse fill="black" stroke="rgb(0,0,0)" stroke-opacity="1" cx="114.46" cy="140.392" rx="0.035" ry="0.0385"/>
	<ellipse fill="black" stroke="rgb(0,0,0)" stroke-opacity="1" cx="114.88" cy="140.392" rx="0.035" ry="0.0385"/>
	<ellipse fill="black" stroke="rgb(0,0,0)" stroke-opacity="1" cx="114.25" cy="140.7" rx="0.035" ry="0.0385"/>
	<ellipse fill="black" stroke="rgb(0,0,0)" stroke-opacity="1" cx="114.67" cy="140.7" rx="0.035" ry="0.0385"/>
	<rect fill="none" stroke="rgb(255,204,51)" stroke-width="2" stroke-opacity="1" transform="translate(114.467, 140.546) translate(0, 0) scale(1,-1)" x="0" y="0" width="0" height="0"/>
	<rect fill="rgb(255,255,255)" stroke="rgb(0,127,255)" stroke-opacity="1" transform="translate(284, 301) rotate(-180) translate(0, 0) scale(1,-1)" x="-0.5" y="-3" width="1" height="6"/>
	<ellipse fill="rgb(0,127,255)" stroke="rgb(0,0,0)" stroke-opacity="1" transform=" rotate(-180, 284, 302.82)" cx="284" cy="302.82" rx="0.7" ry="0.7"/>
	<ellipse fill="rgb(0,127,255)" stroke="rgb(0,0,0)" stroke-opacity="1" transform=" rotate(-180, 284, 301)" cx="284" cy="301" rx="0.7" ry="0.7"/>
	<ellipse fill="rgb(0,127,255)" stroke="rgb(0,0,0)" stroke-opacity="1" transform=" rotate(-180, 284, 299.18)" cx="284" cy="299.18" rx="0.7" ry="0.7"/>
	<ellipse fill="rgb(255,255,255)" stroke="rgb(0,127,255)" stroke-opacity="1" transform=" rotate(-180, 284, 301)" cx="284" cy="301" rx="0.42" ry="0.42"/>
	<ellipse fill="rgb(255,255,255)" stroke="rgb(0,127,255)" stroke-opacity="1" transform=" rotate(-180, 284, 302.82)" cx="284" cy="302.82" rx="0.42" ry="0.42"/>
	<ellipse fill="rgb(255,255,255)" stroke="rgb(0,127,255)" stroke-opacity="1" transform=" rotate(-180, 284, 299.18)" cx="284" cy="299.18" rx="0.42" ry="0.42"/>
	<rect fill="rgb(255,255,255)" stroke="rgb(0,127,255)" stroke-opacity="1" transform="translate(284, 301) rotate(-180) translate(0, 0) scale(1,-1)" x="-0.5" y="-3" width="1" height="6"/>
	<ellipse fill="rgb(0,127,255)" stroke="rgb(0,0,0)" stroke-opacity="1" transform=" rotate(-180, 284, 302.82)" cx="284" cy="302.82" rx="0.7" ry="0.7"/>
	<ellipse fill="rgb(0,127,255)" stroke="rgb(0,0,0)" stroke-opacity="1" transform=" rotate(-180, 284, 301)" cx="284" cy="301" rx="0.7" ry="0.7"/>
	<ellipse fill="rgb(0,127,255)" stroke="rgb(0,0,0)" stroke-opacity="1" transform=" rotate(-180, 284, 299.18)" cx="284" cy="299.18" rx="0.7" ry="0.7"/>
	<ellipse fill="rgb(255,255,255)" stroke="rgb(0,127,255)" stroke-opacity="1" transform=" rotate(-180, 284, 301)" cx="284" cy="301" rx="0.42" ry="0.42"/>
	<ellipse fill="rgb(255,255,255)" stroke="rgb(0,127,255)" stroke-opacity="1" transform=" rotate(-180, 284, 302.82)" cx="284" cy="302.82" rx="0.42" ry="0.42"/>
	<ellipse fill="rgb(255,255,255)" stroke="rgb(0,127,255)" stroke-opacity="1" transform=" rotate(-180, 284, 299.18)" cx="284" cy="299.18" rx="0.42" ry="0.42"/>
	<polygon fill="rgb(0,0,127)" stroke="rgb(0,0,127)" stroke-opacity="1" points="88.000000,168.000000 102.000000,175.000000 88.000000,182.000000 88.000000,168.000000"/>
	<text fill="rgb(0,0,127)" font-size="10" font-family="Arial" text-anchor="middle" dominant-baseline="central" x="86.6" y="164.85">yVAV2</text>
	<polygon fill="rgb(255,255,255)" stroke="rgb(0,0,127)" stroke-opacity="1" points="298.000000,248.500000 305.000000,252.000000 298.000000,255.500000 298.000000,248.500000"/>
	<text fill="rgb(0,0,127)" font-size="10" font-family="Arial" text-anchor="middle" dominant-baseline="central" x="307.1" y="246.05">TDis2_V</text>
	<polygon fill="rgb(255,255,255)" stroke="rgb(0,0,127)" stroke-opacity="1" points="298.000000,276.500000 305.000000,280.000000 298.000000,283.500000 298.000000,276.500000"/>
	<text fill="rgb(0,0,127)" font-size="10" font-family="Arial" text-anchor="middle" dominant-baseline="central" x="307.1" y="274.05">TRooAir2_V</text>
	<polygon fill="rgb(255,255,255)" stroke="rgb(0,0,127)" stroke-opacity="1" points="298.000000,262.500000 305.000000,266.000000 298.000000,269.500000 298.000000,262.500000"/>
	<text fill="rgb(0,0,127)" font-size="10" font-family="Arial" text-anchor="middle" dominant-baseline="central" x="307.1" y="260.05">V2_flow_V</text>
	<ellipse fill="rgb(0,127,255)" stroke="rgb(0,127,255)" stroke-opacity="1" cx="151" cy="189" rx="1.4" ry="1.4"/>
	<ellipse fill="rgb(0,127,255)" stroke="rgb(0,0,0)" stroke-opacity="1" cx="151" cy="189" rx="1.4" ry="1.4"/>
	<ellipse fill="rgb(0,127,255)" stroke="rgb(0,127,255)" stroke-opacity="1" cx="151" cy="161" rx="1.4" ry="1.4"/>
	<ellipse fill="rgb(0,127,255)" stroke="rgb(0,0,0)" stroke-opacity="1" cx="151" cy="161" rx="1.4" ry="1.4"/>
	<polygon fill="rgb(0,0,127)" stroke="rgb(0,0,127)" stroke-opacity="1" points="138.400000,166.600000 144.000000,169.400000 138.400000,172.200000 138.400000,166.600000"/>
	<polygon fill="rgb(0,0,127)" stroke="rgb(0,0,127)" stroke-opacity="1" points="138.400000,177.800000 144.000000,180.600000 138.400000,183.400000 138.400000,177.800000"/>
	<polygon fill="rgb(255,255,255)" stroke="rgb(0,0,127)" stroke-opacity="1" points="172.000000,162.400000 174.800000,163.800000 172.000000,165.200000 172.000000,162.400000"/>
	<ellipse fill="rgb(0,127,255)" stroke="rgb(0,127,255)" stroke-opacity="1" cx="160.8" cy="147" rx="0.7" ry="0.7"/>
	<ellipse fill="rgb(0,127,255)" stroke="rgb(0,0,0)" stroke-opacity="1" cx="160.8" cy="147" rx="0.7" ry="0.7"/>
	<ellipse fill="rgb(0,127,255)" stroke="rgb(0,127,255)" stroke-opacity="1" transform=" rotate(-180, 174.8, 147)" cx="174.8" cy="147" rx="0.7" ry="0.7"/>
	<ellipse fill="rgb(0,127,255)" stroke="rgb(0,0,0)" stroke-opacity="1" transform=" rotate(-180, 174.8, 147)" cx="174.8" cy="147" rx="0.7" ry="0.7"/>
	<ellipse fill="rgb(255,255,255)" stroke="rgb(0,127,255)" stroke-opacity="1" transform=" rotate(-180, 174.8, 147)" cx="174.8" cy="147" rx="0.56" ry="0.56"/>
	<polygon fill="rgb(255,255,255)" stroke="rgb(0,0,127)" stroke-opacity="1" points="168.500000,140.000000 167.800000,138.600000 167.100000,140.000000 168.500000,140.000000"/>
	<ellipse fill="rgb(0,127,255)" stroke="rgb(0,127,255)" stroke-opacity="1" cx="214" cy="147" rx="0.7" ry="0.7"/>
	<ellipse fill="rgb(0,127,255)" stroke="rgb(0,0,0)" stroke-opacity="1" cx="214" cy="147" rx="0.7" ry="0.7"/>
	<ellipse fill="rgb(0,127,255)" stroke="rgb(0,127,255)" stroke-opacity="1" transform=" rotate(-180, 228, 147)" cx="228" cy="147" rx="0.7" ry="0.7"/>
	<ellipse fill="rgb(0,127,255)" stroke="rgb(0,0,0)" stroke-opacity="1" transform=" rotate(-180, 228, 147)" cx="228" cy="147" rx="0.7" ry="0.7"/>
	<ellipse fill="rgb(255,255,255)" stroke="rgb(0,127,255)" stroke-opacity="1" transform=" rotate(-180, 228, 147)" cx="228" cy="147" rx="0.56" ry="0.56"/>
	<polygon fill="rgb(255,255,255)" stroke="rgb(0,0,127)" stroke-opacity="1" points="221.700000,140.000000 221.000000,138.600000 220.300000,140.000000 221.700000,140.000000"/>
	<ellipse fill="rgb(0,127,255)" stroke="rgb(0,127,255)" stroke-opacity="1" cx="253.2" cy="156.8" rx="0.7" ry="0.7"/>
	<ellipse fill="rgb(0,127,255)" stroke="rgb(0,0,0)" stroke-opacity="1" cx="253.2" cy="156.8" rx="0.7" ry="0.7"/>
	<ellipse fill="rgb(0,127,255)" stroke="rgb(0,127,255)" stroke-opacity="1" cx="253.2" cy="159.6" rx="0.7" ry="0.7"/>
	<ellipse fill="rgb(0,127,255)" stroke="rgb(0,0,0)" stroke-opacity="1" cx="253.2" cy="159.6" rx="0.7" ry="0.7"/>
	<ellipse fill="rgb(255,255,255)" stroke="rgb(0,127,255)" stroke-opacity="1" cx="253.2" cy="159.6" rx="0.56" ry="0.56"/>
	<rect fill="none" stroke="rgb(255,204,51)" stroke-width="2" stroke-opacity="1" x="257.4" y="145.6" width="0" height="0"/>
	<polygon fill="rgb(255,215,136)" stroke="rgb(0,0,0)" stroke-opacity="1" points="257.400000,145.320000 257.485680,145.320560 257.563520,145.322240 257.633520,145.325040 257.695680,145.328960 257.750000,145.334000 257.796480,145.340160 257.835120,145.347440 257.865920,145.355840 257.888880,145.365360 257.904000,145.376000 257.904000,145.376000 257.904000,145.376000 257.914080,145.388600 257.921920,145.404000 257.927520,145.422200 257.930880,145.443200 257.932000,145.467000 257.930880,145.493600 257.927520,145.523000 257.921920,145.555200 257.914080,145.590200 257.904000,145.628000 257.904000,145.628000 257.904000,145.628000 257.892800,145.665520 257.881600,145.699680 257.870400,145.730480 257.859200,145.757920 257.848000,145.782000 257.836800,145.802720 257.825600,145.820080 257.814400,145.834080 257.803200,145.844720 257.792000,145.852000 257.792000,145.852000 257.792000,145.852000 257.778000,145.857320 257.758400,145.862080 257.733200,145.866280 257.702400,145.869920 257.666000,145.873000 257.624000,145.875520 257.576400,145.877480 257.523200,145.878880 257.464400,145.879720 257.400000,145.880000 257.400000,145.880000 257.400000,145.880000 257.335600,145.879720 257.276800,145.878880 257.223600,145.877480 257.176000,145.875520 257.134000,145.873000 257.097600,145.869920 257.066800,145.866280 257.041600,145.862080 257.022000,145.857320 257.008000,145.852000 257.008000,145.852000 257.008000,145.852000 256.996800,145.844720 256.985600,145.834080 256.974400,145.820080 256.963200,145.802720 256.952000,145.782000 256.940800,145.757920 256.929600,145.730480 256.918400,145.699680 256.907200,145.665520 256.896000,145.628000 256.896000,145.628000 256.896000,145.628000 256.885920,145.590200 256.878080,145.555200 256.872480,145.523000 256.869120,145.493600 256.868000,145.467000 256.869120,145.443200 256.872480,145.422200 256.878080,145.404000 256.885920,145.388600 256.896000,145.376000 256.896000,145.376000 256.896000,145.376000 256.911120,145.365360 256.934080,145.355840 256.964880,145.347440 257.003520,145.340160 257.050000,145.334000 257.104320,145.328960 257.166480,145.325040 257.236480,145.322240 257.314320,145.320560 257.400000,145.320000 257.400000,145.320000"/>
	<ellipse fill="black" stroke="rgb(0,0,0)" stroke-opacity="1" cx="257.064" cy="145.488" rx="0.028" ry="0.028"/>
	<ellipse fill="black" stroke="rgb(0,0,0)" stroke-opacity="1" cx="257.4" cy="145.488" rx="0.028" ry="0.028"/>
	<ellipse fill="black" stroke="rgb(0,0,0)" stroke-opacity="1" cx="257.736" cy="145.488" rx="0.028" ry="0.028"/>
	<ellipse fill="black" stroke="rgb(0,0,0)" stroke-opacity="1" cx="257.232" cy="145.712" rx="0.028" ry="0.028"/>
	<ellipse fill="black" stroke="rgb(0,0,0)" stroke-opacity="1" cx="257.568" cy="145.712" rx="0.028" ry="0.028"/>
	<rect fill="none" stroke="rgb(255,204,51)" stroke-width="2" stroke-opacity="1" transform="translate(257.406, 145.6) translate(0, 0) scale(1,-1)" x="0" y="0" width="0" height="0"/>
	<polygon fill="rgb(255,255,255)" stroke="rgb(0,0,127)" stroke-opacity="1" points="281.200000,157.500000 282.600000,158.200000 281.200000,158.900000 281.200000,157.500000"/>
	<polygon fill="rgb(0,0,127)" stroke="rgb(0,0,127)" stroke-opacity="1" points="107.600000,173.600000 110.400000,175.000000 107.600000,176.400000 107.600000,173.600000"/>
	<polygon fill="rgb(255,255,255)" stroke="rgb(0,0,127)" stroke-opacity="1" points="124.400000,174.300000 125.800000,175.000000 124.400000,175.700000 124.400000,174.300000"/>
	<polygon fill="rgb(0,0,127)" stroke="rgb(0,0,127)" stroke-opacity="1" points="239.200000,93.800000 242.000000,95.200000 239.200000,96.600000 239.200000,93.800000"/>
	<polygon fill="rgb(255,255,255)" stroke="rgb(0,0,127)" stroke-opacity="1" points="256.000000,94.500000 257.400000,95.200000 256.000000,95.900000 256.000000,94.500000"/>
	<polygon fill="rgb(0,0,127)" stroke="rgb(0,0,127)" stroke-opacity="1" points="260.200000,93.800000 263.000000,95.200000 260.200000,96.600000 260.200000,93.800000"/>
	<polygon fill="rgb(255,255,255)" stroke="rgb(0,0,127)" stroke-opacity="1" points="277.000000,94.500000 278.400000,95.200000 277.000000,95.900000 277.000000,94.500000"/>
	<polygon fill="rgb(0,0,127)" stroke="rgb(0,0,127)" stroke-opacity="1" points="239.200000,72.800000 242.000000,74.200000 239.200000,75.600000 239.200000,72.800000"/>
	<polygon fill="rgb(255,255,255)" stroke="rgb(0,0,127)" stroke-opacity="1" points="256.000000,73.500000 257.400000,74.200000 256.000000,74.900000 256.000000,73.500000"/>
	<polygon fill="rgb(0,0,127)" stroke="rgb(0,0,127)" stroke-opacity="1" points="260.200000,72.800000 263.000000,74.200000 260.200000,75.600000 260.200000,72.800000"/>
	<polygon fill="rgb(255,255,255)" stroke="rgb(0,0,127)" stroke-opacity="1" points="277.000000,73.500000 278.400000,74.200000 277.000000,74.900000 277.000000,73.500000"/>
	<polygon fill="rgb(0,0,127)" stroke="rgb(0,0,127)" stroke-opacity="1" points="239.200000,114.800000 242.000000,116.200000 239.200000,117.600000 239.200000,114.800000"/>
	<polygon fill="rgb(255,255,255)" stroke="rgb(0,0,127)" stroke-opacity="1" points="256.000000,115.500000 257.400000,116.200000 256.000000,116.900000 256.000000,115.500000"/>
	<polygon fill="rgb(0,0,127)" stroke="rgb(0,0,127)" stroke-opacity="1" points="260.200000,114.800000 263.000000,116.200000 260.200000,117.600000 260.200000,114.800000"/>
	<polygon fill="rgb(255,255,255)" stroke="rgb(0,0,127)" stroke-opacity="1" points="277.000000,115.500000 278.400000,116.200000 277.000000,116.900000 277.000000,115.500000"/>
	<polygon fill="rgb(255,255,255)" stroke="rgb(0,0,127)" stroke-opacity="1" points="298.000000,115.500000 305.000000,119.000000 298.000000,122.500000 298.000000,115.500000"/>
	<text fill="rgb(0,0,127)" font-size="10" font-family="Arial" text-anchor="middle" dominant-baseline="central" x="307.1" y="113.05">TOut_V</text>
	<polygon fill="rgb(255,255,255)" stroke="rgb(0,0,127)" stroke-opacity="1" points="298.000000,129.500000 305.000000,133.000000 298.000000,136.500000 298.000000,129.500000"/>
	<text fill="rgb(0,0,127)" font-size="10" font-family="Arial" text-anchor="middle" dominant-baseline="central" x="307.1" y="127.05">RHOut_V</text>
	<polygon fill="rgb(0,0,127)" stroke="rgb(0,0,127)" stroke-opacity="1" points="260.200000,26.600000 263.000000,28.000000 260.200000,29.400000 260.200000,26.600000"/>
	<polygon fill="rgb(255,255,255)" stroke="rgb(0,0,127)" stroke-opacity="1" points="277.000000,27.300000 278.400000,28.000000 277.000000,28.700000 277.000000,27.300000"/>
	<polygon fill="rgb(0,0,127)" stroke="rgb(0,0,127)" stroke-opacity="1" points="260.200000,47.600000 263.000000,49.000000 260.200000,50.400000 260.200000,47.600000"/>
	<polygon fill="rgb(255,255,255)" stroke="rgb(0,0,127)" stroke-opacity="1" points="277.000000,48.300000 278.400000,49.000000 277.000000,49.700000 277.000000,48.300000"/>
	<polygon fill="rgb(0,0,127)" stroke="rgb(0,0,127)" stroke-opacity="1" points="232.200000,26.600000 235.000000,28.000000 232.200000,29.400000 232.200000,26.600000"/>
	<polygon fill="rgb(255,255,255)" stroke="rgb(0,0,127)" stroke-opacity="1" points="249.000000,27.300000 250.400000,28.000000 249.000000,28.700000 249.000000,27.300000"/>
	<polygon fill="rgb(0,0,127)" stroke="rgb(0,0,127)" stroke-opacity="1" points="233.600000,47.600000 236.400000,49.000000 233.600000,50.400000 233.600000,47.600000"/>
	<polygon fill="rgb(255,255,255)" stroke="rgb(0,0,127)" stroke-opacity="1" points="250.400000,48.300000 251.800000,49.000000 250.400000,49.700000 250.400000,48.300000"/>
	<polygon fill="rgb(255,255,255)" stroke="rgb(0,0,127)" stroke-opacity="1" points="306.400000,284.900000 313.400000,288.400000 306.400000,291.900000 306.400000,284.900000"/>
	<text fill="rgb(0,0,127)" font-size="10" font-family="Arial" text-anchor="middle" dominant-baseline="central" x="315.5" y="282.45">TOut</text>
	<polygon fill="rgb(255,255,255)" stroke="rgb(0,0,127)" stroke-opacity="1" points="306.400000,298.900000 313.400000,302.400000 306.400000,305.900000 306.400000,298.900000"/>
	<text fill="rgb(0,0,127)" font-size="10" font-family="Arial" text-anchor="middle" dominant-baseline="central" x="315.5" y="296.45">RHOut</text>
	<polygon fill="rgb(255,255,255)" stroke="rgb(0,0,127)" stroke-opacity="1" points="306.400000,311.500000 313.400000,315.000000 306.400000,318.500000 306.400000,311.500000"/>
	<text fill="rgb(0,0,127)" font-size="10" font-family="Arial" text-anchor="middle" dominant-baseline="central" x="315.5" y="309.05">TDis2</text>
	<polygon fill="rgb(255,255,255)" stroke="rgb(0,0,127)" stroke-opacity="1" points="306.400000,328.300000 313.400000,331.800000 306.400000,335.300000 306.400000,328.300000"/>
	<text fill="rgb(0,0,127)" font-size="10" font-family="Arial" text-anchor="middle" dominant-baseline="central" x="315.5" y="325.85">V2_flow</text>
	<polygon fill="rgb(255,255,255)" stroke="rgb(0,0,127)" stroke-opacity="1" points="306.400000,350.700000 313.400000,354.200000 306.400000,357.700000 306.400000,350.700000"/>
	<text fill="rgb(0,0,127)" font-size="10" font-family="Arial" text-anchor="middle" dominant-baseline="central" x="315.5" y="348.25">TRooAir2</text>
	<polygon fill="rgb(255,255,255)" stroke="rgb(0,0,127)" stroke-opacity="1" points="277.000000,6.300000 278.400000,7.000000 277.000000,7.700000 277.000000,6.300000"/>
	<polygon fill="rgb(255,255,255)" stroke="rgb(0,0,127)" stroke-opacity="1" points="298.000000,94.500000 305.000000,98.000000 298.000000,101.500000 298.000000,94.500000"/>
	<text fill="rgb(0,0,127)" font-size="10" font-family="Arial" text-anchor="middle" dominant-baseline="central" x="307.1" y="92.05">t</text>
	<polygon fill="rgb(0,0,127)" stroke="rgb(0,0,127)" stroke-opacity="1" points="88.000000,196.000000 102.000000,203.000000 88.000000,210.000000 88.000000,196.000000"/>
	<text fill="rgb(0,0,127)" font-size="10" font-family="Arial" text-anchor="middle" dominant-baseline="central" x="86.6" y="192.85">yHea2</text>
	<polygon fill="rgb(0,0,127)" stroke="rgb(0,0,127)" stroke-opacity="1" points="106.200000,200.200000 109.000000,201.600000 106.200000,203.000000 106.200000,200.200000"/>
	<polygon fill="rgb(255,255,255)" stroke="rgb(0,0,127)" stroke-opacity="1" points="123.000000,200.900000 124.400000,201.600000 123.000000,202.300000 123.000000,200.900000"/>
	<polygon fill="rgb(255,255,255)" stroke="rgb(0,0,127)" stroke-opacity="1" points="116.000000,268.100000 117.400000,268.800000 116.000000,269.500000 116.000000,268.100000"/>
	<polygon fill="rgb(0,0,127)" stroke="rgb(0,0,127)" stroke-opacity="1" points="110.400000,236.600000 113.200000,238.000000 110.400000,239.400000 110.400000,236.600000"/>
	<polygon fill="rgb(255,0,255)" stroke="rgb(255,0,255)" stroke-opacity="1" points="110.400000,242.200000 113.200000,243.600000 110.400000,245.000000 110.400000,242.200000"/>
	<polygon fill="rgb(0,0,127)" stroke="rgb(0,0,127)" stroke-opacity="1" points="110.400000,247.800000 113.200000,249.200000 110.400000,250.600000 110.400000,247.800000"/>
	<polygon fill="rgb(255,255,255)" stroke="rgb(0,0,127)" stroke-opacity="1" points="127.200000,242.900000 128.600000,243.600000 127.200000,244.300000 127.200000,242.900000"/>
	<polygon fill="rgb(255,255,255)" stroke="rgb(255,0,255)" stroke-opacity="1" points="97.800000,237.300000 99.200000,238.000000 97.800000,238.700000 97.800000,237.300000"/>
	<polygon fill="rgb(0,0,127)" stroke="rgb(0,0,127)" stroke-opacity="1" points="81.000000,236.600000 83.800000,238.000000 81.000000,239.400000 81.000000,236.600000"/>
	<polygon fill="rgb(255,255,255)" stroke="rgb(0,0,127)" stroke-opacity="1" points="116.000000,294.700000 117.400000,295.400000 116.000000,296.100000 116.000000,294.700000"/>
</svg>
